<?xml version="1.0" encoding="utf-8"?>
<!-- Generator: Adobe Illustrator 29.8.1, SVG Export Plug-In . SVG Version: 9.03 Build 0)  -->
<svg version="1.0" id="Слой_1" xmlns="http://www.w3.org/2000/svg" xmlns:xlink="http://www.w3.org/1999/xlink" x="0px" y="0px"
	 viewBox="0 0 655.8 226.91" style="enable-background:new 0 0 655.8 226.91;" xml:space="preserve">
<style type="text/css">
	.st0{fill:#001A33;}
	.st1{fill:#F97316;}
</style>
<g transform="translate(0.000000,800.000000) scale(0.100000,-0.100000)">
	<g>
		<path d="M884.74,7975.93c-16-13-40-24-52-25c-25,0-98-61-102-85c-2-8-3-44-3-80s1-79,3-96l2-31l14,27c14,25,16,26,33,10
			c10-9,22-30,25-46c9-38,19-37,44,6c17,30,23,34,44,26c12-5,36-7,53-5l29,4l-29-13l-28-14l48-12c42-11,50-10,60,3c12,17,29,22,19,6
			c-13-21,27-9,51,15c32,32,23,50-16,30c-49-26-81-15-45,15c12,10,13,15,4,21c-10,6-10,12,1,26c8,10,2,7-14-7l-29-25l12,25
			c8,17,0,11-26-18c-47-52-59-54-32-4l21,37l-22-25c-22-24-22-24-16-3c6,18,4,22-8,17c-9-4-16-1-16,6c0,9-4,9-16-1
			c-14-12-15-9-11,22l6,34l-24-27c-14-17-22-36-20-49c4-22-18-53-29-42c-3,4-6,26-6,50s-5,43-10,43c-7,0-7,7,0,21c11,20,11,20-14,4
			s-26-16-26,1c0,16-2,17-10,4c-8-12-10-12-10-1c0,20,38,79,63,96s41,20,32,5c-3-5-1-10,5-10s8-4,5-10c-12-20,11-9,45,21
			c24,21,29,29,15,25c-20-6-20-6-1,9c11,8,27,15,35,15c14,0,14,1,1,10c-12,8-9,10,13,10c16,0,26-4,22-10c-3-5,0-10,7-11c7,0,4-4-7-8
			c-17-7-15-9,15-16c34-8,34-9,10-16c-25-7-25-7,4-8c16-1,27-4,23-7c-9-10,17-32,47-40c21-5,25-3,20,10c-10,26,42,21,61-6
			c14-20,14-23,0-28c-13-4-10-14,15-53c16-26,35-47,41-47c8,0,8,4,1,13c-5,6-13,31-17,55c-10,59-47,102-90,102c-21,0-39,7-47,18
			C1010.74,8002.93,936.74,8018.93,884.74,7975.93z M1029.74,7727.93c0-2-10-12-22-23l-23-19l19,23
			C1021.74,7729.93,1029.74,7735.93,1029.74,7727.93z"/>
		<path d="M1079.74,7813.93c0-32,16-41,32-18c4,6,8-1,8-15l1-25l10,23c10,26,3,45-14,39c-7-2-17,3-24,12
			C1081.74,7843.93,1080.74,7840.93,1079.74,7813.93z"/>
		<path d="M1244.74,7748.93c-7-16-18-23-38-23c-32,1-31-18,1-23c12-2,20-8,17-13c-10-15-33-10-53,11l-19,21l-18-28
			c-9-15-29-38-44-50l-26-23h33c26,0,33-4,30-17c-2-9-6-16-10-15c-5,1-17,2-29,2s-17,4-13,11c4,8,0,8-15,0c-24-13-29-33-6-25
			c11,5,13,2,8-11c-5-15-2-17,20-11c25,6,25,5,16-26c-5-18-9-34-9-35c0-11-126-103-141-103c-34,0-125,94-139,145c-7,25-19,45-26,45
			s-20,12-28,28c-10,17-15,21-16,11c0-9,7-22,16-29c18-16,15-60-6-70c-8-4-36-12-61-18c-74-18-157-52-188-78c-22-18-34-43-51-106
			c-12-46-35-106-51-135c-24-43-27-57-19-79c8-19,6-41-5-83c-14-47-15-79-7-201c5-79,8-150,5-156c-2-6,6-14,17-17c30-8,22-34-15-55
			c-16-9-32-18-34-20c-3-1,5-9,17-18c28-19,29-54,2-54c-11,0-20-7-20-15c0-9-9-15-22-15s-30-5-38-10c-13-9-12-13,6-28
			c12-9,24-30,28-45c6-24,3-30-14-34c-21-6-40-55-23-60c30-10,46-32,47-68c1-34-2-39-31-49c-45-16-49-24-25-46c35-33,29-74-13-100
			c-39-24-42-32-20-50c8-7,15-29,15-49c0-45-20-56-151-77c-99-16-111-20-90-34c20-12,93-19,276-26c113-4,206-14,316-35l155-29
			l155,15c85,9,219,22,299,31c80,8,260,19,400,25c252,9,377,22,394,39c13,13-10,20-111,34l-88,11l4,40c8,76,7,80-16,83
			c-20,3-23,9-23,48c0,35-6,51-25,70c-20,20-23,29-15,44c19,36,12,99-15,125c-13,14-29,25-35,25c-7,0-5,9,4,22c21,30,20,91-1,117
			c-14,16-31,21-83,23l-65,3l-3,48l-3,47h95c87,0,96,2,110,22c30,43,14,120-29,140c-21,10-29,8-48-9c-19-18-30-20-81-15l-59,7l57,44
			c96,75,109,100,86,183c-8,29-18,39-45,48c-40,13-105,6-184-21c-51-18-71-18-71,1c0,5,66,91,146,192c81,101,151,189,157,196
			c16,21,1,25-32,7c-34-17-37-14-20,17c6,11,9,22,6,24c-8,9-217-97-231-118c-14-20-17-20-33-6c-10,9-52,30-93,47
			c-62,27-174,84-189,97c-2,2,3,14,11,26c8,13,23,46,32,73c19,57,45,106,46,87c0-18,40,4,40,22c0,7,11,18,25,24c30,14,50,58,38,84
			C1255.74,7769.93,1253.74,7769.93,1244.74,7748.93z M1145.74,7655.93c-3-9-11-13-16-10c-8,5-7,11,1,21
			C1144.74,7684.93,1154.74,7677.93,1145.74,7655.93z M832.74,7452.93l37-73l-23-8l-22-8l22-7c15-5,19-12,16-27c-8-29-16-30-62-7
			c-28,14-48,33-61,59c-23,44-27,99-7,99c8,0,24,11,37,25s24,24,25,22C795.74,7526.93,812.74,7492.93,832.74,7452.93z
			 M655.74,7443.93c22-107,74-174,150-196l46-13l-25-17c-14-9-40-37-59-63c-24-34-48-54-87-71c-29-13-56-21-59-18s0,31,7,63
			c37,162,38,226,6,275c-23,36-31,27-11-12c18-33,22-136,6-146c-6-4-10,7-10,27c0,31-36,106-45,96c-3-2,4-22,15-43
			c12-23,20-59,20-88v-49l-35,31c-50,44-53,38-8-13c34-38,38-49,35-84l-4-40l-51,26c-36,19-66,27-103,27c-56,0-59,9-16,48
			c17,16,27,17,71,9c38-7,51-6,48,2c-2,6-27,12-56,14c-40,2-51,6-47,17c3,8,10,33,16,57c7,24,21,65,33,92c17,41,28,52,71,72
			C630.74,7477.93,647.74,7477.93,655.74,7443.93z M1140.74,7377.93c24-14,79-39,121-57c42-17,82-38,89-46c15-19-33,2-166,70
			c-117,60-124,62-109,46c7-6,72-42,146-79l135-67l-135-184c-74-102-139-184-146-182c-35,9-248,107-257,119c-9,10-7,19,10,37
			c19,20,29,22,82,19c58-3,61-2,56,17c-4,16,0,20,21,20c20,0,23,3,14,12c-16,16-15,28,3,28c8,0,15,4,15,9s-7,14-15,21s-15,16-15,21
			s7,9,15,9c30,0,14,22-31,41c-25,11-44,24-42,27c2,4,23,39,46,79c43,71,45,72,81,69
			C1079.74,7404.93,1115.74,7391.93,1140.74,7377.93z M700.74,7383.93c13-16,12-17-3-4c-10,7-18,15-18,17
			C679.74,7404.93,687.74,7399.93,700.74,7383.93z M1585.74,7373.93c-1-18-46-48-103-69c-18-6-30-8-27-3c12,20-17,7-41-18
			c-14-15-25-23-25-17c0,19,39,47,118,85c42,21,78,38,78,38C1586.74,7390.93,1586.74,7382.93,1585.74,7373.93z M919.74,7356.93
			c0-7-8-20-17-27c-15-12-16-12-10,4c4,10,7,23,7,28s5,9,10,9C915.74,7370.93,919.74,7364.93,919.74,7356.93z M979.74,7366.93
			c0-11-19-15-25-6c-3,5,1,10,9,10C972.74,7370.93,979.74,7368.93,979.74,7366.93z M724.74,7337.93c1-7,7-11,14-9c7,1,10-2,6-7
			c-9-16-34-1-32,19C713.74,7360.93,724.74,7357.93,724.74,7337.93z M1617.74,7333.93c-8-10-70-88-138-173s-139-172-159-194
			c-33-35-149-101-159-91c-6,5,74,113,200,272c81,102,96,116,171,157C1623.74,7353.93,1639.74,7359.93,1617.74,7333.93z
			 M785.74,7300.93c8,0,14-4,14-10c0-5,3-9,8-9c17,3,32-2,32-9c0-15-34-9-47,7c-8,11-12,12-13,3c0-9-4-10-19,0c-14,8-16,14-7,24
			c6,6,13,8,14,3C769.74,7304.93,777.74,7300.93,785.74,7300.93z M914.74,7290.93c-28-12-37-12-30,0c3,6,16,10,28,9
			C933.74,7299.93,933.74,7298.93,914.74,7290.93z M969.74,7220.93c37-20,21-27-23-11c-15,6-37,6-54,1l-28-8l34-1c20-1,51-12,73-27
			c47-33,42-44-5-16c-27,15-42,18-68,12l-34-8l32-1c21-1,37-9,47-23c17-24,13-39-6-20c-7,7-28,12-47,11l-36-1l35-10
			c20-5,42-18,49-30c12-19,11-20-6-13c-48,21-77,17-107-14c-23-24-38-31-68-31c-51,0-91-22-116-62c-22-35-103-88-164-108
			c-30-9-43-9-65,2c-25,12-28,19-31,72c-2,42,3,78,19,123c22,61,24,63,58,63c40,0,105-34,99-52c-3-7-26-17-54-23c-55-13-94-31-94-45
			c0-5,15,0,34,11c20,11,66,23,113,29c81,9,155,32,184,57c9,8,29,33,44,57c27,43,90,85,130,85
			C925.74,7239.93,950.74,7231.93,969.74,7220.93z M1396.74,7233.93c-9-2-15-9-12-14c4-5-1-9-9-9c-9,0-16,4-16,9c0,11,19,20,40,19
			C1409.74,7238.93,1408.74,7236.93,1396.74,7233.93z M1363.74,7188.93c-25-42-247-328-251-324c-3,3,41,70,97,148
			c57,79,110,153,119,165C1345.74,7200.93,1376.74,7210.93,1363.74,7188.93z M904.74,7070.93c3-5,1-10-4-10c-6,0-11,5-11,10
			c0,6,2,10,4,10C896.74,7080.93,901.74,7076.93,904.74,7070.93z M805.74,6984.93c21-15,73-40,117-56c68-26,350-179,385-208
			c16-14,15-24-6-49l-17-22l-130,35c-72,19-148,38-170,42c-58,10-136,46-177,83c-37,32-55,40-42,19c5-9,2-9-9,1c-9,7-17,10-17,5
			c-1-5-12,5-25,21c-26,32-35,22-10-11c14-19,21-43,8-31c-3,4-11-1-18-10c-12-16-35-11-35,9c0,7,5,6,14-1c10-8,8,0-5,26
			c-25,50-25,113,2,147C698.74,7019.93,752.74,7020.93,805.74,6984.93z M1632.74,6972.93c10-11,21-37,24-59c5-38,3-42-48-86
			c-29-26-69-55-89-64c-72-36-284-12-314,35c-3,5,27,30,66,55c63,42,111,61,202,82c20,4,26,9,19,16s-23,7-49,0c-53-15-64-13-32,4
			c44,24,131,45,167,40C1597.74,6993.93,1621.74,6982.93,1632.74,6972.93z M1309.74,6900.93c-28-22-149-88-137-74c9,9,149,93,157,93
			C1332.74,6919.93,1323.74,6911.93,1309.74,6900.93z M654.74,6821.93c-6-5-25,47-25,67c1,9,7-1,15-23
			C652.74,6844.93,656.74,6824.93,654.74,6821.93z M674.74,6774.93c23-24,37-44,31-44c-23,0-59,34-78,74l-19,41l5-35
			c4-21,18-46,36-62l29-27l-37-6c-20-3-45-8-54-10c-19-3-21,11-9,55l7,25l18-30c9-16,14-21,10-10c-12,34-16,94-9,123
			c8,27,8,27,18-12C627.74,6834.93,649.74,6799.93,674.74,6774.93z M578.74,6838.93c-6-13-21-33-32-45c-21-24-11-33,11-11
			c8,8,6-5-5-34c-14-38-23-48-45-53c-15-3-41-8-57-11c-24-4-33,0-51,27c-22,30-22,32-6,60c13,23,15,33,6,50c-11,20-10,21,22,14
			c18-4,36-12,39-17c4-6,17-3,33,7c40,27,40,13-1-35c-47-55-13-37,47,24C589.74,6866.93,594.74,6869.93,578.74,6838.93z
			 M1402.74,6716.93c71-20,239-16,264,6c14,13,22,14,38,6c19-11,19-11,0-19c-19-7-19-8,3-15c21-6,21-7,5-20c-17-12-16-13,7-14
			c14-1,19-4,12-7c-6-2-10-9-6-14c3-5,2-9-3-8c-20,3-27-2-13-11c27-18-9-32-65-26c-27,3-66,6-85,6c-27,0-32,3-20,10
			c17,12-1,9-103-16c-112-27-135-15-116,60c6,25,9,55,6,67c-4,15-2,19,9,15C1343.74,6733.93,1373.74,6724.93,1402.74,6716.93z
			 M1017.74,6629.93c-2-6-14,4-26,21c-15,19-21,38-17,48c5,13,11,9,26-21C1011.74,6656.93,1019.74,6634.93,1017.74,6629.93z
			 M1042.74,6699.93c44-24,58-51,54-106c-4-63-9-70-42-55c-22,10-25,18-24,55c1,24-5,59-14,77c-10,18-17,35-17,37
			C999.74,6714.93,1021.74,6710.93,1042.74,6699.93z M759.74,6670.93c0-11-1-20-2-20c-2,0-70-9-152-20c-183-25-186-25-186-1
			c0,16,15,21,113,35c61,10,119,19,127,21c8,1,34,3,58,4C753.74,6690.93,759.74,6687.93,759.74,6670.93z M1229.74,6639.93
			c43-19,44-21,26-35c-11-8-30-14-43-14s-41-9-62-20l-39-19l-4,54l-3,55h40C1166.74,6660.93,1204.74,6650.93,1229.74,6639.93z
			 M999.74,6581.93c0-11-3-11-15-1c-8,7-15,22-15,33c0,20,0,20,15,1C992.74,6604.93,999.74,6589.93,999.74,6581.93z M992.74,6558.93
			c56-43,86-47,135-18c40,25,164,43,199,29c13-5,40-9,59-9s34-5,34-10c0-6-12-8-27-5c-24,5-25,5-10-5c22-14,47-6,47,15
			c0,22,76,21,84-1c11-30,6-53-11-52c-10,1-84-3-164-7s-230-4-332,0l-185,7l-5,32c-2,17-8,40-12,50c-6,13-5,17,3,12c6-3,13-2,16,3
			c4,5,31,7,64,4C933.74,6598.93,953.74,6589.93,992.74,6558.93z M789.74,6537.93c0-24-2-24-137-30c-75-4-165-7-200-7h-63v30v30h200
			h200V6537.93z M717.74,6493.93c-21-2-55-2-75,0c-21,2-4,4,37,4S737.74,6495.93,717.74,6493.93z M542.74,6483.93c-7-2-19-2-25,0
			c-7,3-2,5,12,5S548.74,6486.93,542.74,6483.93z M1271.74,6473.93l397-6l11-30c13-40,13-59-3-81c-12-16-13-13-11,20c2,22,0,29-2,17
			c-7-32-32-29-37,5c-4,24-4,24-7-8l-3-35l-7,35l-7,35l-2-32c-1-26-5-33-21-33c-11,0-20,6-20,13c-1,7-6,5-14-5c-18-24-26-23-27,5
			l-2,22l-4-23c-3-13-10-25-16-27c-17-6-547-35-630-35h-67l7,28c10,38,7,102-4,113c-7,7-9-7-5-40c5-51-12-111-30-111c-5,0-2,10,6,22
			c20,28,21,98,2,123c-12,17-27,18-232,13c-221-5-225-3-34,11C654.74,6480.93,809.74,6481.93,1271.74,6473.93z M777.74,6392.93
			c6-61-6-66-158-57c-74,4-169,9-210,11l-75,3l-3,35l-3,35l78,4c43,2,143,3,223,3l145-1L777.74,6392.93z M466.74,6323.93
			c-31-2-83-2-115,0c-31,2-5,3,58,3S498.74,6325.93,466.74,6323.93z M739.74,6311.93c0-8-159-3-169,5c-2,2,35,4,82,4
			C700.74,6320.93,739.74,6316.93,739.74,6311.93z M574.74,6300.93l110-7h-90c-49,0-135,3-190,7l-100,7h80
			C428.74,6307.93,514.74,6304.93,574.74,6300.93z M1464.74,6300.93c-37-7-35-7,25-9c36-1,83-6,105-10l40-9l-40-2c-31-2-34-4-13-7
			c14-2,50,0,80,5c38,8,55,7,60-1c11-18,10-59-2-52c-5,3-38,0-72-7c-55-11-59-14-33-19c28-6,28-7-10-9c-22-1-53-6-70-10
			c-29-7-29-8-5-10c68-6-75-20-275-26l-220-7l19,22c19,21,19,21-12,21c-26,0-32,4-33,23l-2,22l-4-22c-4-20-11-23-49-23
			c-39,0-44,3-45,23c-1,17-3,15-10-10c-5-18-14-33-19-33s-7,7-4,15c5,12,1,13-25,4c-16-6-33-19-36-29s-14-18-24-17c-12,1-17,6-14,15
			c5,11,7,11,14,1c14-23,21,56,9,100c-6,24-9,45-7,48c7,6,398,20,572,20C1451.74,6307.93,1489.74,6304.93,1464.74,6300.93z
			 M628.74,6262.93c98-13,137-21,144-33c14-22,0-89-20-96c-13-5-175,9-372,33c-42,5-43,7-37,35c3,16,1,40-4,54l-10,25l83-1
			C457.74,6279.93,554.74,6271.93,628.74,6262.93z M783.74,6264.93c10-25-1-29-14-5c-6,12-7,21-1,21
			C773.74,6280.93,780.74,6273.93,783.74,6264.93z M796.74,6173.93c-3-10-5-4-5,12c0,17,2,24,5,18
			C798.74,6196.93,798.74,6182.93,796.74,6173.93z M514.74,6140.93c83-9,135-18,117-19c-34-1-299,27-317,34
			C292.74,6163.93,372.74,6157.93,514.74,6140.93z M1019.74,6140.93c-14-10-27-17-29-15c-8,8,22,35,38,35
			C1040.74,6160.93,1038.74,6155.93,1019.74,6140.93z M526.74,6099.93c79-10,163-19,187-19c47,0,62-11,69-50c2-14,3-6,2,16l-2,41
			l191,14c105,8,313,14,463,14c149,0,266,3,260,7c-7,5-4,8,9,8c28,0,42-18,50-61c4-22,2-29-3-21c-7,9-13,5-23-15c-11-23-14-25-18-10
			c-3,17-5,17-16,2c-10-14-41-19-172-26c-87-5-258-16-379-24c-374-25-402-26-382-15c24,15,22,34-3,20c-14-8-69-4-207,15
			c-279,38-253,29-253,84v47l43-4C365.74,6120.93,448.74,6110.93,526.74,6099.93z M912.74,6123.93c-7-2-21-2-30,0c-10,3-4,5,12,5
			C911.74,6128.93,918.74,6126.93,912.74,6123.93z M712.74,6113.93c-7-2-19-2-25,0c-7,3-2,5,12,5S718.74,6116.93,712.74,6113.93z
			 M306.74,6014.93c-3-3-12-4-19-1c-8,3-5,6,6,6C304.74,6020.93,310.74,6017.93,306.74,6014.93z M424.74,5981.93c34-7,35-9,10-9
			c-16,0-43,4-60,8C332.74,5991.93,373.74,5991.93,424.74,5981.93z M552.74,5983.93c-7-2-19-2-25,0c-7,3-2,5,12,5
			S558.74,5986.93,552.74,5983.93z M1774.74,5980.93c-25-6-26-8-7-9c21-1,23-5,20-53l-3-53l-110-11c-60-6-99-12-85-14
			c36-4-66-16-285-34c-104-9-254-23-331-31c-147-16-206-17-198-3c3,5,9,6,14,3c30-18,12,118-18,143c-14,10-12,12,12,12
			c15,0,143,9,284,20s313,24,382,29C1610.74,5990.93,1814.74,5990.93,1774.74,5980.93z M612.74,5973.93c-7-2-19-2-25,0
			c-7,3-2,5,12,5S618.74,5976.93,612.74,5973.93z M419.74,5955.93c261-41,285-44,288-35c4,11,53-6,64-23c10-16,10-95,1-100
			c-7-4-436,64-490,78c-15,3-20,10-16,25c3,11,13,20,22,20c14,1,14,2-1,14c-10,7-18,18-18,25
			C269.74,5974.93,304.74,5973.93,419.74,5955.93z M517.74,5963.93c-10-2-26-2-35,0c-10,3-2,5,17,5S526.74,5966.93,517.74,5963.93z
			 M676.74,5964.93c-3-3-12-4-19-1c-8,3-5,6,6,6C674.74,5970.93,680.74,5967.93,676.74,5964.93z M587.74,5953.93c-10-2-26-2-35,0
			c-10,3-2,5,17,5S596.74,5956.93,587.74,5953.93z M473.74,5825.93c196-40,255-55,217-55c-6,0-89,15-184,34s-193,38-220,41
			c-26,4-50,11-53,16C225.74,5875.93,240.74,5873.93,473.74,5825.93z M796.74,5798.93c-3-7-5-2-5,12s2,19,5,13
			C798.74,5816.93,798.74,5804.93,796.74,5798.93z"/>
		<path d="M917.74,6513.93c12-2,32-2,45,0c12,2,2,4-23,4S904.74,6515.93,917.74,6513.93z"/>
		<path d="M841.74,6395.93c0-16,2-22,5-12c2,9,2,23,0,30C843.74,6419.93,841.74,6412.93,841.74,6395.93z"/>
		<path d="M922.74,6403.93c9-2,25-2,35,0c9,3,1,5-18,5S912.74,6406.93,922.74,6403.93z"/>
		<path d="M927.74,6383.93c17-2,47-2,65,0c17,2,3,4-33,4S909.74,6385.93,927.74,6383.93z"/>
		<path d="M962.74,6363.93c15-2,39-2,55,0c15,2,2,4-28,4S946.74,6365.93,962.74,6363.93z"/>
		<path d="M1377.74,6283.93c6-2,18-2,25,0c6,3,1,5-13,5S1370.74,6286.93,1377.74,6283.93z"/>
		<path d="M820.74,6235.93c1-19,18-51,18-35c0,8-4,22-9,30S820.74,6241.93,820.74,6235.93z"/>
		<path d="M1497.74,6103.93c28-2,76-2,105,0c28,2,5,3-53,3S1468.74,6105.93,1497.74,6103.93z"/>
		<path d="M874.74,6061.93c-52-5-60-9-66-31c-16-58-14-60,54-59c46,1,56,3,37,9c-21,7-22,8-5,10c11,1,1,8-25,15c-41,12-42,13-15,15
			c19,1,24,4,15,8c-8,3,23,14,70,23c68,14,76,17,40,16C954.74,6067.93,907.74,6064.93,874.74,6061.93z"/>
		<path d="M1652.74,5963.93c15-2,37-2,50,0c12,2,0,4-28,4C1647.74,5967.93,1636.74,5965.93,1652.74,5963.93z"/>
		<path d="M1336.74,5953.93c-3-2-45-8-94-13c-72-7-62-8,57-3c80,3,177,8,215,13c64,6,60,7-52,8
			C1395.74,5958.93,1338.74,5956.93,1336.74,5953.93z"/>
		<path d="M1037.74,5923.93c23-2,59-2,80,0c20,2,1,4-43,4S1013.74,5925.93,1037.74,5923.93z"/>
		<path d="M817.74,5913.93c-20-5-23-30-8-53c8-12,10-9,10,12c0,28,10,32,125,41c22,2,6,4-35,4S826.74,5916.93,817.74,5913.93z"/>
		<path d="M1412.74,5873.93c26-2,68-2,95,0c26,2,4,3-48,3S1385.74,5875.93,1412.74,5873.93z"/>
		<path d="M987.74,5833.93c12-2,30-2,40,0c9,3-1,5-23,4C982.74,5837.93,974.74,5835.93,987.74,5833.93z"/>
		<path d="M1432.74,5833.93c9-2,25-2,35,0c9,3,1,5-18,5S1422.74,5836.93,1432.74,5833.93z"/>
		<path d="M874.74,5820.93c17-4,44-8,60-8c25-1,27,1,10,8c-11,5-38,8-60,8C846.74,5828.93,845.74,5827.93,874.74,5820.93z"/>
		<path d="M1327.74,5823.93c12-2,32-2,45,0c12,2,2,4-23,4S1314.74,5825.93,1327.74,5823.93z"/>
		<path d="M1227.74,5813.93c12-2,32-2,45,0c12,2,2,4-23,4S1214.74,5815.93,1227.74,5813.93z"/>
		<path d="M849.74,5800.93c-12-8-9-10,12-10c15,0,30,5,33,10C902.74,5813.93,869.74,5813.93,849.74,5800.93z"/>
		<path d="M1112.74,5803.93c9-2,25-2,35,0c9,3,1,5-18,5S1102.74,5806.93,1112.74,5803.93z"/>
		<path d="M762.74,7650.93c-1-22,3-43,9-46c7-5,9-2,5,9c-3,9-1,17,5,19c12,4,3,58-10,58
			C767.74,7690.93,763.74,7672.93,762.74,7650.93z"/>
		<path d="M943.74,7621.93c3-5-4-11-15-14c-12-3-19-12-17-19c7-21,45-21,66,0c20,20,20,20-5,31
			C943.74,7632.93,936.74,7633.93,943.74,7621.93z"/>
		<path d="M1027.74,7533.93c-2-20-8-28-22-26c-12,1-15-2-8-9c18-18,42-1,42,32C1039.74,7568.93,1031.74,7569.93,1027.74,7533.93z"/>
		<path d="M941.74,7460.93c7-11,16-20,21-20c4,0,5,6,1,13c-5,8-2,7,10-2c12-11,20-11,28-3c12,12,8,15-45,26
			C930.74,7480.93,929.74,7479.93,941.74,7460.93z"/>
	</g>
	<g>
		<path class="st0" d="M2223.04,7075.46v700h80l291-479h-52l291,479h80v-700h-115v498l26-7l-216-355h-80l-216,355l26,7v-498H2223.04
			z"/>
		<path class="st0" d="M3273.04,7065.46c-48.01,0-91.17,10.83-129.5,32.5c-38.35,21.66-68.67,51.5-91.01,89.5
			c-22.34,38-33.5,80.65-33.5,128c0,47.33,11,89.83,33,127.5c22,37.66,51.83,67.5,89.5,89.5c37.66,22,79.5,33,125.5,33
			c44.66,0,84.16-10.34,118.51-31c34.33-20.67,61.33-49,81-85c19.66-36,29.5-77,29.5-123c0-8-0.5-16.17-1.5-24.5
			c-1-8.34-2.5-17.5-4.5-27.5h-393.99v90h337l-41.01-36c-1.34,29.33-7,54-17,74s-24.17,35.33-42.5,46c-18.34,10.66-40.84,16-67.5,16
			c-28,0-52.34-6-73-18c-20.67-12-36.67-28.84-48-50.5c-11.35-21.67-17-47.5-17-77.5s6.01-56.34,18-79c12-22.67,29-40.17,51.01-52.5
			c22-12.34,47.32-18.5,76-18.5c24.66,0,47.5,4.33,68.51,13c21,8.66,38.83,21.33,53.5,38l70-71c-23.34-27.34-51.67-48-85-62
			C3345.7,7072.47,3310.36,7065.46,3273.04,7065.46z"/>
		<path class="st0" d="M3779.04,7085.46c-42.67,0-81.17,10.5-115.5,31.5c-34.35,21-61.34,49.83-81,86.5
			c-19.68,36.66-29.5,77.66-29.5,123c0,45.33,9.82,86,29.5,122c19.66,36,46.65,64.5,81,85.5c34.33,21,72.83,31.5,115.5,31.5
			c38.01,0,71.33-7.67,100-23c28.66-15.35,51.01-36.5,67-63.5c16.01-27,24-58.5,24-94.5v-118c0-35.35-8.17-66.67-24.5-94
			c-16.35-27.34-38.85-48.67-67.5-64C3849.37,7093.12,3816.37,7085.46,3779.04,7085.46z M3784.04,6865.46c-50.66,0-95,9.17-133,27.5
			c-38,18.34-68.67,44.17-92,77.5l72,72c19.33-24,41.33-42,66.01-54c24.65-12,54.33-18,88.99-18c43.33,0,77.66,11.17,103,33.5
			c25.33,22.34,38.01,52.84,38.01,91.5v118l18.99,106l-18.99,107v129h110v-460c0-46-10.67-86.16-32-120.5
			c-21.35-34.33-51.01-61.16-89-80.5S3834.04,6865.46,3784.04,6865.46z M3801.04,7189.46c26.66,0,50,5.66,70,17
			c20,11.33,35.5,27.15,46.5,47.5c11,20.33,16.49,44.16,16.49,71.5c0,27.33-5.5,51.16-16.49,71.5c-11.01,20.33-26.5,36.16-46.5,47.5
			c-20,11.33-43.34,17-70,17c-26.67,0-50.17-5.67-70.5-17c-20.34-11.34-36.17-27.17-47.5-47.5c-11.35-20.34-17-44.17-17-71.5
			c0-26.67,5.65-50.34,17-71c11.33-20.67,27.16-36.67,47.5-48C3750.87,7195.12,3774.37,7189.46,3801.04,7189.46z"/>
		<path class="st0" d="M4360.03,7065.46c-43.35,0-82.5,11-117.5,33c-35,22-62.68,51.83-83,89.5
			c-20.35,37.66-30.51,79.83-30.51,126.5c0,47.33,10.16,89.83,30.51,127.5c20.32,37.66,48,67.66,83,90
			c35,22.33,74.15,33.5,117.5,33.5c36.65,0,69.15-7.84,97.5-23.5c28.33-15.67,50.83-37.17,67.5-64.5c16.65-27.34,25-58.34,25-93
			v-138c0-34.67-8.17-65.67-24.5-93c-16.35-27.34-38.85-48.84-67.5-64.5C4429.36,7073.31,4396.68,7065.46,4360.03,7065.46z
			 M4378.03,7169.46c40.65,0,73.5,13.66,98.5,41c25,27.33,37.5,62.33,37.5,105c0,28.66-5.66,54-16.99,76
			c-11.35,22-27.18,39.16-47.5,51.5c-20.35,12.33-44.18,18.5-71.5,18.5c-26.67,0-50.18-6.17-70.5-18.5
			c-20.34-12.34-36.35-29.5-48-51.5c-11.68-22-17.5-47.34-17.5-76c0-28.67,5.82-54,17.5-76c11.65-22,27.66-39.17,48-51.5
			C4327.85,7175.62,4351.36,7169.46,4378.03,7169.46z M4507.03,7075.46v129l18.99,117l-18.99,116v118h110v-480H4507.03z"/>
		<path class="st1" d="M4754.02,7075.46v700h115v-700H4754.02z M4833.02,7385.46v105h391v-105H4833.02z M5199.02,7075.46v700h115
			v-700H5199.02z"/>
		<path class="st1" d="M5648.01,7065.46c-40.67,0-76.85,9-108.5,27c-31.67,18-56.35,42.83-74,74.5
			c-17.67,31.66-26.49,68.16-26.49,109.5v279h110v-274c0-23.34,3.83-43.17,11.49-59.5c7.66-16.34,19-28.84,34-37.5
			c15-8.67,32.82-13,53.5-13c32,0,56.5,9.5,73.51,28.5c16.99,19,25.5,46.15,25.5,81.5v274h110v-279c0-42-8.85-78.84-26.5-110.5
			c-17.67-31.67-42.17-56.34-73.5-74C5725.67,7074.31,5689.34,7065.46,5648.01,7065.46z"/>
		<path class="st1" d="M5968,7075.46v720h110v-358l-18.99-116l18.99-117v-129H5968z M6225,7065.46c-36.67,0-69.35,7.84-98,23.5
			c-28.67,15.65-51.17,37.15-67.5,64.5c-16.35,27.33-24.5,58.33-24.5,93v138c0,34.66,8.33,65.66,25,93
			c16.66,27.32,39.33,48.83,68,64.5c28.66,15.66,61.01,23.5,97,23.5c43.33,0,82.5-11.17,117.5-33.5c35-22.34,62.66-52.34,83-90
			c20.33-37.67,30.51-80.17,30.51-127.5c0-46.67-10.18-88.84-30.51-126.5c-20.34-37.67-48-67.5-83-89.5
			C6307.5,7076.46,6268.33,7065.46,6225,7065.46z M6207,7169.46c26.66,0,50.16,6.16,70.5,18.5c20.33,12.33,36.33,29.5,48,51.5
			c11.66,22,17.5,47.33,17.5,76c0,28.66-5.84,54-17.5,76c-11.67,22-27.67,39.16-48,51.5c-20.34,12.33-43.84,18.5-70.5,18.5
			c-26.67,0-50.34-6.17-71-18.5c-20.67-12.34-36.68-29.5-48.01-51.5c-11.34-22-16.99-47.34-16.99-76c0-28.67,5.65-54,16.99-76
			c11.33-22,27.33-39.17,48.01-51.5C6156.66,7175.62,6180.33,7169.46,6207,7169.46z"/>
		<path class="st0" d="M2223.04,6075.46v700h115v-700H2223.04z M2302.04,6670.46v105h387v-105H2302.04z M2302.04,6382.47v101h358
			v-101H2302.04z M2302.04,6075.46v105h392v-105H2302.04z"/>
		<path class="st0" d="M2991.05,6065.46c-43.35,0-82.5,11-117.5,33s-62.68,51.83-83,89.5c-20.34,37.66-30.5,79.82-30.5,126.5
			c0,47.32,10.16,89.82,30.5,127.5c20.33,37.66,48,67.66,83,90c35,22.32,74.15,33.5,117.5,33.5c36.65,0,69.15-7.84,97.5-23.5
			c28.33-15.67,50.83-37.18,67.5-64.5c16.65-27.34,25-58.35,25-93v-138.01c0-34.67-8.17-65.66-24.5-93
			c-16.35-27.34-38.85-48.84-67.5-64.5C3060.37,6073.31,3027.7,6065.46,2991.05,6065.46z M3009.05,6169.47
			c27.32,0,51.15,6.15,71.5,18.5c20.32,12.32,36.15,29.5,47.5,51.5c11.33,21.99,16.99,47.32,16.99,76c0,28.65-5.66,54-16.99,76
			c-11.35,22-27.18,39.16-47.5,51.5c-20.35,12.32-44.18,18.5-71.5,18.5c-26.67,0-50.18-6.17-70.5-18.5
			c-20.34-12.34-36.35-29.5-48-51.5c-11.67-21.99-17.5-47.34-17.5-76c0-28.67,5.83-54,17.5-76c11.65-22,27.66-39.18,48-51.5
			C2958.87,6175.62,2982.38,6169.47,3009.05,6169.47z M3248.05,6075.46h-110v129l18.99,116.99l-18.99,116.01v358h110V6075.46z"/>
		<path class="st0" d="M3567.03,6065.46c-40.67,0-76.85,9-108.5,27c-31.67,18-56.35,42.82-74,74.5
			c-17.67,31.65-26.49,68.15-26.49,109.49v279h110v-274c0-23.34,3.83-43.16,11.49-59.49c7.66-16.35,19-28.85,34-37.5
			c15-8.67,32.82-13.01,53.5-13.01c32,0,56.5,9.5,73.51,28.51c16.99,18.99,25.5,46.15,25.5,81.49v274h110v-279
			c0-41.99-8.85-78.84-26.5-110.5c-17.67-31.67-42.17-56.34-73.5-73.99C3644.69,6074.31,3608.36,6065.46,3567.03,6065.46z"/>
		<path class="st0" d="M4108.03,6065.46c-47.34,0-90.18,11-128.51,33c-38.34,22-68.5,52-90.5,90s-33,80.33-33,127
			c0,47.32,11,89.82,33,127.5c22,37.66,52.16,67.5,90.5,89.5c38.33,22,81.16,33,128.51,33c37.32,0,72.16-7.17,104.5-21.5
			c32.32-14.34,59.82-34.84,82.5-61.49l-72-73c-14,16.65-30.85,29.15-50.5,37.5c-19.68,8.32-41.17,12.5-64.5,12.5
			c-27.34,0-51.5-6.17-72.5-18.51c-21.01-12.34-37.34-29.17-49-50.5c-11.67-21.35-17.5-46.35-17.5-75c0-28,5.83-52.84,17.5-74.5
			c11.66-21.67,28-38.67,49-51c21-12.34,45.16-18.51,72.5-18.51c23.33,0,44.82,4.16,64.5,12.5c19.65,8.33,36.49,20.83,50.5,37.5
			l72-73c-22.68-26.67-50.18-47.17-82.5-61.49C4180.19,6072.63,4145.35,6065.46,4108.03,6065.46z"/>
		<path class="st0" d="M4565.03,6065.46c-43.35,0-82.5,11-117.5,33s-62.68,51.83-83,89.5c-20.35,37.66-30.51,79.82-30.51,126.5
			c0,47.32,10.16,89.82,30.51,127.5c20.32,37.66,48,67.66,83,90c35,22.32,74.15,33.5,117.5,33.5c36.65,0,69.15-7.84,97.5-23.5
			c28.33-15.67,50.83-37.18,67.5-64.5c16.65-27.34,25-58.35,25-93v-138.01c0-34.67-8.17-65.66-24.5-93
			c-16.35-27.34-38.85-48.84-67.5-64.5C4634.36,6073.31,4601.68,6065.46,4565.03,6065.46z M4583.03,6169.47
			c40.65,0,73.5,13.65,98.5,41c25,27.32,37.5,62.32,37.5,105c0,28.65-5.66,54-16.99,76c-11.35,22-27.18,39.16-47.5,51.5
			c-20.35,12.32-44.18,18.5-71.5,18.5c-26.67,0-50.18-6.17-70.5-18.5c-20.34-12.34-36.35-29.5-48-51.5
			c-11.68-21.99-17.5-47.34-17.5-76c0-28.67,5.82-54,17.5-76c11.65-22,27.66-39.18,48-51.5
			C4532.85,6175.62,4556.36,6169.47,4583.03,6169.47z M4712.03,6075.46v129l18.99,116.99l-18.99,116.01v118h110v-480H4712.03z"/>
		<path class="st0" d="M4902.02,6455.46v100h340v-100H4902.02z M5017.02,6075.46v680h110v-680H5017.02z"/>
		<path class="st0" d="M5378.01,6643.46c-18.67,0-34.17,6.33-46.5,19c-12.34,12.66-18.5,28.33-18.5,47
			c0,18.65,6.15,34.33,18.5,46.99c12.33,12.66,27.83,19,46.5,19c19.33,0,35-6.35,47-19c11.99-12.67,18-28.34,18-46.99
			c0-18.67-6.01-34.35-18-47C5413.01,6649.79,5397.34,6643.46,5378.01,6643.46z M5323.01,6075.46v480h110v-480H5323.01z"/>
		<path class="st0" d="M5776,6065.46c-46.67,0-88.99,11.15-126.99,33.5c-38.01,22.33-68.17,52.5-90.51,90.51
			c-22.34,38-33.5,80.32-33.5,126.99c0,46.66,11.15,88.66,33.5,126.01c22.33,37.32,52.5,67.16,90.51,89.5
			c38,22.32,80.32,33.5,126.99,33.5c47.33,0,90-11,128.01-33c38-22,68.15-51.85,90.5-89.5c22.32-37.68,33.5-79.84,33.5-126.5
			c0-46.67-11.17-88.99-33.5-126.99c-22.34-38.01-52.5-68.17-90.5-90.51C5866,6076.62,5823.33,6065.46,5776,6065.46z M5776,6171.46
			c27.33,0,51.5,6.16,72.5,18.51c21.01,12.32,37.33,29.5,49,51.49c11.66,22,17.5,47,17.5,75c0,28.01-6,52.66-18,74
			c-12,21.33-28.35,38.15-49,50.5c-20.67,12.33-44.67,18.51-72,18.51c-26.67,0-50.5-6.17-71.49-18.51
			c-21.01-12.34-37.34-29.17-49-50.5c-11.67-21.35-17.5-46-17.5-74c0-28,5.83-53,17.5-75c11.66-21.99,28-39.17,49-51.49
			C5725.5,6177.62,5749.33,6171.46,5776,6171.46z"/>
		<path class="st0" d="M6118.99,6075.46v480h110v-480H6118.99z M6447.99,6075.46v277c0,32-10.18,58.33-30.5,78.99
			c-20.34,20.66-46.5,31.01-78.51,31.01c-21.34,0-40.34-4.68-56.99-14c-16.68-9.35-29.68-22.34-39-38.99c-9.35-16.68-14-35.67-14-57
			l-43,23.99c0,36.66,8,69.16,24,97.5c16,28.33,38.15,50.66,66.49,67c28.33,16.33,60.16,24.5,95.51,24.5c36,0,68-9.17,96-27.5
			c28-18.34,50-42,66-71c16.01-29,24-59.18,24-90.51v-301H6447.99z"/>
	</g>
</g>
</svg>
